<svg id="Bubbles" xmlns="http://www.w3.org/2000/svg" width="60" height="55.497" viewBox="0 0 60 55.497">
  <defs>
    <style>
      .cls-1 {
        fill: purple;
      }
    </style>
  </defs>
  <path id="Path_177" data-name="Path 177" class="cls-1" d="M6.879,47.6,5.426,55.758a2.08,2.08,0,0,0,.851,2.092,1.987,1.987,0,0,0,1.241.39,1.881,1.881,0,0,0,.993-.248l8.511-4.574C18.865,61.4,27.731,67.46,38.333,67.46q1.117,0,2.234-.106L51.525,73.24a2.06,2.06,0,0,0,.993.248,2.234,2.234,0,0,0,1.241-.39,2.079,2.079,0,0,0,.851-2.092L53.156,62.85C57.518,59.623,60,55.155,60,50.368,60,42.425,53.014,35.51,43.262,33.7c-.922-8.759-10.248-15.709-21.6-15.709C9.716,17.992,0,25.652,0,35.084.035,39.907,2.518,44.41,6.879,47.6Zm48.9,2.766c0,3.723-2.2,7.269-6.064,9.716a2.168,2.168,0,0,0-.957,2.163l.922,5.177-7.66-4.114a2.179,2.179,0,0,0-1.241-.248c-.816.071-1.667.142-2.447.142C29.575,63.2,22.3,58.417,21.1,52.212h.567c10.709,0,19.61-6.17,21.348-14.22C50.5,39.552,55.78,44.623,55.78,50.368ZM21.7,22.283c9.61,0,17.411,5.745,17.411,12.837S31.312,47.957,21.7,47.957a19.242,19.242,0,0,1-2.447-.142,2.18,2.18,0,0,0-1.241.248l-7.66,4.114L11.277,47a2.107,2.107,0,0,0-.957-2.163c-3.865-2.447-6.064-5.993-6.064-9.716C4.291,28.063,12.092,22.283,21.7,22.283Z" transform="translate(0 -17.992)"/>
</svg>
