<svg aria-hidden="true" data-prefix="fas" data-icon="heart" class="svg-inline--fa fa-heart fa-w-18" role="img" xmlns="http://www.w3.org/2000/svg" viewBox="0 15 60 60"><path fill="#800080" d="M29.018,72.183a2.465,2.465,0,0,0,1.274.386,2.238,2.238,0,0,0,1.274-.386c1.042-.695,25.51-16.826,28.288-33.228,1.428-8.49-1.2-13.739-3.628-16.633a15.037,15.037,0,0,0-11.308-5.4,10.966,10.966,0,0,0-3.936.695,28.725,28.725,0,0,0-12,8.761c-2.123-2.624-5.75-6.406-10.15-7.911a13.415,13.415,0,0,0-4.361-.695A13.832,13.832,0,0,0,4.2,22.244C1.926,24.753-.66,29.538.151,37.874,1.772,54.276,27.9,71.449,29.018,72.183ZM7.638,25.331a9.153,9.153,0,0,1,6.831-2.972,8.688,8.688,0,0,1,2.856.463c5.364,1.814,9.648,8.645,9.725,8.683a2.245,2.245,0,0,0,2.007,1.081,2.337,2.337,0,0,0,1.968-1.158A24.464,24.464,0,0,1,42.641,21.9a7.035,7.035,0,0,1,2.277-.386,10.439,10.439,0,0,1,7.757,3.782c2.624,3.087,3.512,7.564,2.586,12.89-1,5.866-5.789,12.89-13.855,20.338a110.224,110.224,0,0,1-11.115,8.915,115.817,115.817,0,0,1-11.771-9.378C10.108,50.339,5.361,43.2,4.782,37.411,4.28,32.124,5.245,27.956,7.638,25.331Z"></path></svg>