<svg id="Megaphone" xmlns="http://www.w3.org/2000/svg" width="60" height="53.994" viewBox="0 0 60 53.994">
  <defs>
    <style>
      .cls-1 {
        fill: purple;
      }
    </style>
  </defs>
  <path id="Path_109" data-name="Path 109" class="cls-1" d="M.084,35.92,0,56.841a2.5,2.5,0,0,0,.795,1.841,2.614,2.614,0,0,0,1.883.669c.042,0,2.176-.167,5.481-.209a20.417,20.417,0,0,0,1.8,7.155A13.409,13.409,0,0,0,22.469,74.33h.418A13.206,13.206,0,0,0,32.3,70.857,15.856,15.856,0,0,0,36.653,62.2,64.214,64.214,0,0,1,55.816,72.74h0a2.448,2.448,0,0,0,1.674.628,2.693,2.693,0,0,0,1-.209A2.516,2.516,0,0,0,60,70.857V22.866a2.541,2.541,0,0,0-4.226-1.883c-.084.084-10.126,9.038-17.741,11.381-4.393,1.339-10.5,2.05-18.159,2.05a154.182,154.182,0,0,1-16.946-1A2.573,2.573,0,0,0,.962,34,2.674,2.674,0,0,0,.084,35.92Zm22.8,33.389h-.293a8.428,8.428,0,0,1-8.033-5.021A14.442,14.442,0,0,1,13.18,59.1c1,0,2.092.042,3.138.084a2.528,2.528,0,0,0,1,.209h0a2,2,0,0,0,.837-.167,85.625,85.625,0,0,1,13.6,1.59C31.464,63.41,29.916,69.309,22.887,69.309ZM39.54,37.175c5.4-1.674,11.506-5.9,15.439-9V65.795a73.8,73.8,0,0,0-16.653-8.368c-5.314-1.883-12.092-2.762-18.41-3.1L20,39.477C28.117,39.435,34.686,38.682,39.54,37.175ZM5.1,38.723c2.3.209,5.816.5,9.875.628L14.9,54.079c-1.13-.042-2.218-.042-3.222-.042-2.678,0-4.979.084-6.653.126Z" transform="translate(0 -20.336)"/>
</svg>
