<svg id="Player" xmlns="http://www.w3.org/2000/svg" width="60" height="60" viewBox="0 0 60 60">
  <defs>
    <style>
      .cls-1 {
        fill: purple;
      }
    </style>
  </defs>
  <g id="Group_50" data-name="Group 50">
    <path id="Path_89" data-name="Path 89" class="cls-1" d="M184.27,128.556l-26.524-13.05a2.5,2.5,0,0,0-2.22,0,1.86,1.86,0,0,0-1.11,1.639v26.069a1.86,1.86,0,0,0,1.11,1.639,2.568,2.568,0,0,0,2.22,0l26.487-13.05a1.753,1.753,0,0,0,.037-3.247Zm-25.414,11.411V120.423l19.828,9.772Z" transform="translate(-137.306 -100.198)"/>
    <path id="Path_90" data-name="Path 90" class="cls-1" d="M30,0A30,30,0,1,0,60,30,30.025,30.025,0,0,0,30,0Zm0,55.914A25.914,25.914,0,1,1,55.914,30,25.926,25.926,0,0,1,30,55.914Z"/>
  </g>
</svg>
