<svg id="Layer_1" data-name="Layer 1" xmlns="http://www.w3.org/2000/svg" viewBox="0 0 154.98 155" fill="#1763dc"><path d="M380.47,297.58c-4,2.08-8,4.1-12.25,5.83a.86.86,0,0,0-.53,1,76.67,76.67,0,0,0,4.22,13.47.88.88,0,0,0,1,.51c8.38-1.69,14.73-5.22,21.77-9.13,13.36-7.43,28.51-15.85,61.44-15.85,27.22,0,47.93-2.72,64.14-6.19a.87.87,0,0,0,.68-.87,77,77,0,0,0-2.7-18.78.86.86,0,0,0-1.15-.58l-.77.3c-17.14,6.66-40.61,15.77-74.43,15.77C408.78,283.05,393.74,290.77,380.47,297.58Z" transform="translate(-365.95 -210.5)"/><path d="M484.54,332.07c7.68,0,14.9.24,21.73.62a.85.85,0,0,0,.76-.37,78.43,78.43,0,0,0,5.59-9.34.87.87,0,0,0-.78-1.27c-8.06.08-16.86.06-26.49,0-4.82,0-9.81,0-15,0-28.12,0-40.63,7.56-52.74,14.86-6.89,4.16-13.52,8.17-22.32,10.32a.87.87,0,0,0-.34,1.52,78,78,0,0,0,15.88,9.89.92.92,0,0,0,.59.05c7.7-1.9,13.46-5.68,19.82-9.86C442.93,340.8,456.22,332.07,484.54,332.07Z" transform="translate(-365.95 -210.5)"/><path d="M484.54,341.06c-25.63,0-37.21,7.6-48.4,14.95-3.14,2.07-6.33,4.16-9.79,6a.87.87,0,0,0,.22,1.62,78.24,78.24,0,0,0,16.88,1.84,77.25,77.25,0,0,0,54.82-22.72.87.87,0,0,0-.59-1.48C493.45,341.15,489.07,341.06,484.54,341.06Z" transform="translate(-365.95 -210.5)"/><path d="M376.37,289.59c6.81-3.49,14.52-7.46,24.82-10.46,11.7-3.41,25-5.06,40.68-5.06A165,165,0,0,0,483.12,269,247.8,247.8,0,0,0,513,258.9l1.11-.43a.86.86,0,0,0,.48-1.15A77.51,77.51,0,0,0,366,288c0,1.77.06,3.53.18,5.27a.87.87,0,0,0,1.22.74C370.37,292.67,373.3,291.16,376.37,289.59Z" transform="translate(-365.95 -210.5)"/><path d="M412.94,328.89c12.54-7.57,26.76-16.15,57.38-16.15l15.05,0c11.44,0,21.72.05,31-.09a.87.87,0,0,0,.81-.6,76.84,76.84,0,0,0,3.23-14.52.87.87,0,0,0-1-1c-16.26,3.29-36.74,5.8-63.22,5.8-13.71,0-25.28,1.55-35.35,4.74-8.8,2.79-15.37,6.44-21.73,10-6.73,3.75-13.24,7.36-21.52,9.46a.88.88,0,0,0-.53,1.3A78.12,78.12,0,0,0,385.14,339a.88.88,0,0,0,.73.3C397.28,338.34,404.61,333.92,412.94,328.89Z" transform="translate(-365.95 -210.5)"/></svg>
